<svg version="1.2" baseProfile="tiny-ps" xmlns="http://www.w3.org/2000/svg" viewBox="0 0 36 39" width="36" height="39">
	<title>icici-svg-2-svg</title>
	<style>
		tspan { white-space:pre }
		.shp0 { fill: #f06321 } 
		.shp1 { fill: #ae282e } 
		.shp2 { fill: #ffffff } 
	</style>
	<g id="Layer">
		<path id="Layer" class="shp0" d="M10.19 8.49C19.09 -0.37 29.89 -2.67 34.21 3.37C38.54 9.41 34.74 21.61 25.83 30.47C16.93 39.39 6.13 41.69 1.74 35.59C-2.51 29.48 1.29 17.34 10.19 8.49" />
		<path id="Layer" class="shp1" d="M16.53 3.76C15.57 4.48 14.61 5.33 13.65 6.26C6.01 14.02 2.81 24.68 6.59 30.01C10.5 35.34 19.87 33.36 27.69 25.53C31.93 21.32 34.75 16.45 35.9 11.92C36.22 8.56 35.77 5.6 34.3 3.36C30.96 -1.37 23.78 -0.98 16.53 3.76" />
		<path id="Layer" class="shp2" d="M28 4.76L28 4.96C27.93 6.07 27.26 7.44 26.05 8.62C24.24 10.32 21.83 10.98 20.82 10C19.68 8.95 20.35 6.66 22.16 4.83C24.04 3.06 26.46 2.47 27.46 3.52C27.8 3.85 28 4.24 28 4.76M21.02 34.8C16.72 37.94 12.3 39.51 8 38.85C9.81 38.92 11.29 36.95 12.5 34.34C13.71 31.65 14.38 29.17 14.98 26.81C15.85 23.08 15.92 20.47 15.45 19.88C14.71 18.96 13.1 19.16 11.22 20.2C10.28 20.73 9.07 20.4 10.49 18.7C11.96 17 17.66 12.94 19.68 12.29C21.96 11.7 24.51 12.55 23.64 14.97C23.03 16.73 15.12 36.89 21.02 34.8Z" />
	</g>
</svg>