<svg version="1.2" baseProfile="tiny-ps" xmlns="http://www.w3.org/2000/svg" viewBox="0 0 199 39" width="199" height="39">
	<title>icici-svg-2-svg</title>
	<style>
		tspan { white-space:pre }
		.shp0 { fill: #004a7f } 
		.shp1 { fill: #f06321 } 
		.shp2 { fill: #ae282e } 
		.shp3 { fill: #ffffff } 
	</style>
	<g id="Layer">
		<path id="Layer" class="shp0" d="M36 39L42.73 39L48 19L41.34 19L36 39ZM71 39L77.73 39L83 19L76.27 19L71 39ZM106 39L112.17 39L117 19L110.77 19L106 39ZM64.99 25.78L71.83 25.78C72.77 21.28 69.89 19 63.19 19C55.41 19 50.19 22.82 48.38 29.34C46.84 35.37 49.99 39 57.29 39C64.66 39 69.01 36.72 70.82 31.55L63.99 31.55C62.99 33.83 61.24 34.97 58.83 34.97C55.55 34.97 54.21 32.96 55.21 29.13C56.29 25.17 58.83 22.96 62.11 22.96C64.26 22.96 65.19 23.9 64.99 25.78M99 25.78L105.83 25.78C106.77 21.28 103.82 19 97.13 19C89.43 19 84.15 22.82 82.41 29.34C80.81 35.37 83.95 39 91.24 39C98.54 39 102.88 36.72 104.76 31.55L97.93 31.55C96.99 33.83 95.19 34.97 92.78 34.97C89.5 34.97 88.17 32.96 89.23 29.13C90.24 25.17 92.78 22.96 96.06 22.96C98.2 22.96 99.2 23.9 99 25.78" />
		<path id="Layer" class="shp1" d="M10.19 8.49C19.09 -0.37 29.89 -2.67 34.21 3.37C38.54 9.41 34.74 21.61 25.83 30.47C16.93 39.39 6.13 41.69 1.74 35.59C-2.51 29.48 1.29 17.34 10.19 8.49" />
		<path id="Layer" class="shp2" d="M16.53 3.76C15.57 4.48 14.61 5.33 13.65 6.26C6.01 14.02 2.81 24.68 6.59 30.01C10.5 35.34 19.87 33.36 27.69 25.53C31.93 21.32 34.75 16.45 35.9 11.92C36.22 8.56 35.77 5.6 34.3 3.36C30.96 -1.37 23.78 -0.98 16.53 3.76" />
		<path id="Layer" class="shp3" d="M28 4.76L28 4.96C27.93 6.07 27.26 7.44 26.05 8.62C24.24 10.32 21.83 10.98 20.82 10C19.68 8.95 20.35 6.66 22.16 4.83C24.04 3.06 26.46 2.47 27.46 3.52C27.8 3.85 28 4.24 28 4.76M21.02 34.8C16.72 37.94 12.3 39.51 8 38.85C9.81 38.92 11.29 36.95 12.5 34.34C13.71 31.65 14.38 29.17 14.98 26.81C15.85 23.08 15.92 20.47 15.45 19.88C14.71 18.96 13.1 19.16 11.22 20.2C10.28 20.73 9.07 20.4 10.49 18.7C11.96 17 17.66 12.94 19.68 12.29C21.96 11.7 24.51 12.55 23.64 14.97C23.03 16.73 15.12 36.89 21.02 34.8Z" />
		<path id="Layer" fill-rule="evenodd" class="shp0" d="M122 39L127.24 19L137.34 19C139.73 19 141.53 19.07 142.59 19.81C143.85 20.68 144.31 22.02 143.78 23.83C143.19 26.25 141.33 27.79 138.41 28.33C141.53 28.73 142.72 30.61 141.99 33.36C141.89 33.76 141.76 34.15 141.58 34.53C141.41 34.9 141.2 35.26 140.97 35.6C140.73 35.94 140.46 36.25 140.16 36.54C139.87 36.83 139.55 37.09 139.2 37.32C137.14 38.73 135.09 39 132.29 39L122 39ZM130.77 22.02L129.44 26.92L133.49 26.92C136.75 26.92 138.47 26.38 139.07 24.44C139.53 22.42 138.07 22.02 134.89 22.02L130.77 22.02ZM128.58 30.01L127.05 35.78L132.29 35.78C135.15 35.78 136.81 35.04 137.34 32.96C138.01 30.61 136.41 30.01 133.02 30.01L128.58 30.01ZM149.56 28.98L145.76 28.98C146.39 27.12 148.1 25.83 150.7 25.26C151.59 25.13 152.54 25 153.62 25C157.04 25 158.87 26.16 159 28.34L159 28.98C159 29.43 158.94 29.88 158.81 30.33L157.35 35.72C157.1 36.75 156.91 37.78 156.72 38.68L152.92 38.68L153.23 36.82C153.05 36.99 152.86 37.15 152.66 37.31C152.46 37.46 152.25 37.6 152.04 37.74C151.83 37.87 151.61 38 151.38 38.11C151.16 38.22 150.93 38.33 150.7 38.42C149.75 38.81 148.67 39 147.53 39C144.11 39 142.46 37.26 143.16 34.63C143.92 31.74 146.32 30.59 150.7 30.27C151.4 30.27 152.16 30.2 152.92 30.2L154.95 30.2L155.01 30.01C155.58 28.08 154.82 27.19 152.85 27.19C151.96 27.19 151.27 27.31 150.7 27.63C150.19 27.89 149.75 28.34 149.56 28.98ZM147.15 34.7C146.77 35.98 147.53 36.69 149.24 36.69C149.75 36.69 150.25 36.63 150.7 36.5L150.7 36.5C152.47 36.05 153.81 34.7 154.31 32.71L154.38 32.51L150.7 32.51C148.67 32.71 147.53 33.22 147.15 34.7ZM163.52 29.34C163.65 28.81 163.91 27.5 164.3 25.33L168.24 25.33L167.78 27.76C169.53 25.92 171.53 25 174.05 25C177.93 25 179.67 27.11 178.77 30.65L176.57 39L172.63 39L174.5 31.84C175.28 29.08 174.44 27.69 172.11 27.69C169.72 27.69 167.46 29.47 166.82 31.97L164.94 39L161 39L163.52 29.34ZM185.31 19L189.3 19L186.25 30.61L193.89 25.04L199 25.04L190.76 31.01L196.88 39L191.36 39L185.98 31.48L183.99 39L180 39L185.31 19Z" />
	</g>
</svg>